<?xml version="1.0" encoding="UTF-8" standalone="no"?>
<!DOCTYPE svg PUBLIC "-//W3C//DTD SVG 1.1//EN"
 "http://www.w3.org/Graphics/SVG/1.1/DTD/svg11.dtd">
<!-- Generated by graphviz version 14.1.2 (0)
 -->
<!-- Title: include/verum/ascon/set.h Pages: 1 -->
<svg width="270pt" height="168pt"
 viewBox="0.00 0.00 270.00 168.00" xmlns="http://www.w3.org/2000/svg" xmlns:xlink="http://www.w3.org/1999/xlink">
<g id="graph0" class="graph" transform="scale(1 1) rotate(0) translate(4 163.75)">
<title>include/verum/ascon/set.h</title>
<!-- Node1 -->
<g id="Node000001" class="node">
<title>Node1</title>
<g id="a_Node000001"><a xlink:title="Ascon feature&#45;selection configuration macros.">
<polygon fill="#999999" stroke="#666666" points="186.12,-159.75 68.88,-159.75 68.88,-126.25 186.12,-126.25 186.12,-159.75"/>
<text xml:space="preserve" text-anchor="start" x="76.88" y="-146.25" font-family="Helvetica,sans-Serif" font-size="10.00">include/verum/ascon</text>
<text xml:space="preserve" text-anchor="middle" x="127.5" y="-133.5" font-family="Helvetica,sans-Serif" font-size="10.00">/set.h</text>
</a>
</g>
</g>
<!-- Node2 -->
<g id="Node000002" class="node">
<title>Node2</title>
<g id="a_Node000002"><a xlink:href="aead_8h.html" target="_top" xlink:title="Ascon&#45;AEAD128 authenticated encryption.">
<polygon fill="white" stroke="#666666" points="186.12,-90.25 68.88,-90.25 68.88,-56.75 186.12,-56.75 186.12,-90.25"/>
<text xml:space="preserve" text-anchor="start" x="76.88" y="-76.75" font-family="Helvetica,sans-Serif" font-size="10.00">include/verum/ascon</text>
<text xml:space="preserve" text-anchor="middle" x="127.5" y="-64" font-family="Helvetica,sans-Serif" font-size="10.00">/aead.h</text>
</a>
</g>
</g>
<!-- Node1&#45;&gt;Node2 -->
<g id="edge1_Node000001_Node000002" class="edge">
<title>Node1&#45;&gt;Node2</title>
<g id="a_edge1_Node000001_Node000002"><a xlink:title=" ">
<path fill="none" stroke="#63b8ff" d="M127.5,-114.56C127.5,-106.34 127.5,-97.59 127.5,-90.38"/>
<polygon fill="#63b8ff" stroke="#63b8ff" points="124,-114.49 127.5,-124.49 131,-114.49 124,-114.49"/>
</a>
</g>
</g>
<!-- Node3 -->
<g id="Node000003" class="node">
<title>Node3</title>
<g id="a_Node000003"><a xlink:href="source_2ascon_2aead_8c.html" target="_top" xlink:title="NIST SP 800&#45;232 ASCON AEAD&#45;128.">
<polygon fill="white" stroke="#666666" points="115,-20.75 0,-20.75 0,0 115,0 115,-20.75"/>
<text xml:space="preserve" text-anchor="middle" x="57.5" y="-7.25" font-family="Helvetica,sans-Serif" font-size="10.00">source/ascon/aead.c</text>
</a>
</g>
</g>
<!-- Node2&#45;&gt;Node3 -->
<g id="edge2_Node000002_Node000003" class="edge">
<title>Node2&#45;&gt;Node3</title>
<g id="a_edge2_Node000002_Node000003"><a xlink:title=" ">
<path fill="none" stroke="#63b8ff" d="M100.58,-49C89.54,-39.35 77.35,-28.71 68.77,-21.22"/>
<polygon fill="#63b8ff" stroke="#63b8ff" points="98.13,-51.5 107.97,-55.44 102.74,-46.23 98.13,-51.5"/>
</a>
</g>
</g>
<!-- Node4 -->
<g id="Node000004" class="node">
<title>Node4</title>
<g id="a_Node000004"><a xlink:href="test_2suite_2ascon_2aead_8c.html" target="_top" xlink:title="Auto&#45;generated KAT tests for VERUM_ASCON_AEAD128.">
<polygon fill="white" stroke="#666666" points="261.75,-20.75 133.25,-20.75 133.25,0 261.75,0 261.75,-20.75"/>
<text xml:space="preserve" text-anchor="middle" x="197.5" y="-7.25" font-family="Helvetica,sans-Serif" font-size="10.00">test/suite/ascon/aead.c</text>
</a>
</g>
</g>
<!-- Node2&#45;&gt;Node4 -->
<g id="edge3_Node000002_Node000004" class="edge">
<title>Node2&#45;&gt;Node4</title>
<g id="a_edge3_Node000002_Node000004"><a xlink:title=" ">
<path fill="none" stroke="#63b8ff" d="M154.42,-49C165.46,-39.35 177.65,-28.71 186.23,-21.22"/>
<polygon fill="#63b8ff" stroke="#63b8ff" points="152.26,-46.23 147.03,-55.44 156.87,-51.5 152.26,-46.23"/>
</a>
</g>
</g>
</g>
</svg>
