<?xml version="1.0" encoding="UTF-8" standalone="no"?>
<!DOCTYPE svg PUBLIC "-//W3C//DTD SVG 1.1//EN"
 "http://www.w3.org/Graphics/SVG/1.1/DTD/svg11.dtd">
<!-- Generated by graphviz version 14.1.2 (0)
 -->
<!-- Title: include/define.h Pages: 1 -->
<!--zoomable 155 -->

<svg id="main" version="1.1" xmlns="http://www.w3.org/2000/svg" xmlns:xlink="http://www.w3.org/1999/xlink" xml:space="preserve" onload="init(evt)">

<style type="text/css"><![CDATA[
.node, .edge {opacity: 0.7;}
.node.selected, .edge.selected {opacity: 1;}
.edge:hover path { stroke: red; }
.edge:hover polygon { stroke: red; fill: red; }
]]></style>

<defs>
  <circle id="rim" cx="0" cy="0" r="7"/>
  <circle id="rim2" cx="0" cy="0" r="3.5"/>
  <g id="zoomPlus">
    <use xlink:href="#rim" fill="#404040"><set attributeName="fill" to="#808080" begin="zoomplus.mouseover" end="zoomplus.mouseout"/></use>
    <path d="M-4,0h8M0,-4v8" fill="none" stroke="white" stroke-width="1.5" pointer-events="none"/>
  </g>
  <g id="zoomMin">
    <use xlink:href="#rim" fill="#404040"><set attributeName="fill" to="#808080" begin="zoomminus.mouseover" end="zoomminus.mouseout"/></use>
    <path d="M-4,0h8" fill="none" stroke="white" stroke-width="1.5" pointer-events="none"/>
  </g>
  <g id="arrowUp" transform="translate(30 24)">
    <use xlink:href="#rim"/>
    <path pointer-events="none" fill="none" stroke="white" stroke-width="1.5" d="M0,-3.0v7 M-2.5,-0.5L0,-3.0L2.5,-0.5"/>
  </g>
  <g id="arrowRight" transform="rotate(90) translate(36 -43)">
    <use xlink:href="#rim"/>
    <path pointer-events="none" fill="none" stroke="white" stroke-width="1.5" d="M0,-3.0v7 M-2.5,-0.5L0,-3.0L2.5,-0.5"/>
  </g>
  <g id="arrowDown" transform="rotate(180) translate(-30 -48)">
    <use xlink:href="#rim"/>
    <path pointer-events="none" fill="none" stroke="white" stroke-width="1.5" d="M0,-3.0v7 M-2.5,-0.5L0,-3.0L2.5,-0.5"/>
  </g>
  <g id="arrowLeft" transform="rotate(270) translate(-36 17)">
    <use xlink:href="#rim"/>
    <path pointer-events="none" fill="none" stroke="white" stroke-width="1.5" d="M0,-3.0v7 M-2.5,-0.5L0,-3.0L2.5,-0.5"/>
  </g>
  <g id="resetDef">
    <use xlink:href="#rim2" fill="#404040"><set attributeName="fill" to="#808080" begin="reset.mouseover" end="reset.mouseout"/></use>
  </g>
</defs>
<script type="application/ecmascript">
var viewWidth = 963;
var viewHeight = 155;
var sectionId = 'dynsection-0';
</script>
<script type="application/ecmascript" xlink:href="svg.min.js"/>
<svg id="graph" class="graph">
<g id="viewport">
<title>include/define.h</title>
<!-- Node1 -->
<g id="Node000001" class="node">
<title>Node1</title>
<g id="a_Node000001"><a xlink:title="Project&#45;wide compiler abstraction and feature&#45;selection macros.">
<polygon fill="#999999" stroke="#666666" points="497.88,-147 404.62,-147 404.62,-126.25 497.88,-126.25 497.88,-147"/>
<text xml:space="preserve" text-anchor="middle" x="451.25" y="-133.5" font-family="Helvetica,sans-Serif" font-size="10.00">include/define.h</text>
</a>
</g>
</g>
<!-- Node2 -->
<g id="Node000002" class="node">
<title>Node2</title>
<g id="a_Node000002"><a xlink:href="aead_8h.html" target="_top" xlink:title="Ascon&#45;AEAD128 authenticated encryption.">
<polygon fill="white" stroke="#666666" points="197.88,-90.25 80.62,-90.25 80.62,-56.75 197.88,-56.75 197.88,-90.25"/>
<text xml:space="preserve" text-anchor="start" x="88.62" y="-76.75" font-family="Helvetica,sans-Serif" font-size="10.00">include/verum/ascon</text>
<text xml:space="preserve" text-anchor="middle" x="139.25" y="-64" font-family="Helvetica,sans-Serif" font-size="10.00">/aead.h</text>
</a>
</g>
</g>
<!-- Node1&#45;&gt;Node2 -->
<g id="edge1_Node000001_Node000002" class="edge">
<title>Node1&#45;&gt;Node2</title>
<g id="a_edge1_Node000001_Node000002"><a xlink:title=" ">
<path fill="none" stroke="#63b8ff" d="M393.27,-125.03C344.82,-116.08 273.94,-102.76 212.25,-90.25 207.68,-89.32 202.94,-88.34 198.19,-87.35"/>
<polygon fill="#63b8ff" stroke="#63b8ff" points="392.51,-128.45 402.98,-126.82 393.78,-121.57 392.51,-128.45"/>
</a>
</g>
</g>
<!-- Node3 -->
<g id="Node000003" class="node">
<title>Node3</title>
<g id="a_Node000003"><a xlink:href="source_2ascon_2aead_8c.html" target="_top" xlink:title="NIST SP 800&#45;232 ASCON AEAD&#45;128.">
<polygon fill="white" stroke="#666666" points="261.75,-20.75 146.75,-20.75 146.75,0 261.75,0 261.75,-20.75"/>
<text xml:space="preserve" text-anchor="middle" x="204.25" y="-7.25" font-family="Helvetica,sans-Serif" font-size="10.00">source/ascon/aead.c</text>
</a>
</g>
</g>
<!-- Node1&#45;&gt;Node3 -->
<g id="edge11_Node000001_Node000003" class="edge">
<title>Node1&#45;&gt;Node3</title>
<g id="a_edge11_Node000001_Node000003"><a xlink:title=" ">
<path fill="none" stroke="#63b8ff" d="M393.16,-135.7C348.56,-132.94 287.62,-122.74 245.25,-90.25 222.1,-72.5 210.79,-37.97 206.45,-21.11"/>
<polygon fill="#63b8ff" stroke="#63b8ff" points="392.74,-139.18 402.9,-136.19 393.09,-132.19 392.74,-139.18"/>
</a>
</g>
</g>
<!-- Node5 -->
<g id="Node000005" class="node">
<title>Node5</title>
<g id="a_Node000005"><a xlink:href="hash_8h.html" target="_top" xlink:title="Ascon&#45;Hash256 cryptographic hash function.">
<polygon fill="white" stroke="#666666" points="509.88,-90.25 392.62,-90.25 392.62,-56.75 509.88,-56.75 509.88,-90.25"/>
<text xml:space="preserve" text-anchor="start" x="400.62" y="-76.75" font-family="Helvetica,sans-Serif" font-size="10.00">include/verum/ascon</text>
<text xml:space="preserve" text-anchor="middle" x="451.25" y="-64" font-family="Helvetica,sans-Serif" font-size="10.00">/hash.h</text>
</a>
</g>
</g>
<!-- Node1&#45;&gt;Node5 -->
<g id="edge4_Node000001_Node000005" class="edge">
<title>Node1&#45;&gt;Node5</title>
<g id="a_edge4_Node000001_Node000005"><a xlink:title=" ">
<path fill="none" stroke="#63b8ff" d="M451.25,-114.34C451.25,-106.6 451.25,-97.97 451.25,-90.73"/>
<polygon fill="#63b8ff" stroke="#63b8ff" points="447.75,-114.29 451.25,-124.29 454.75,-114.29 447.75,-114.29"/>
</a>
</g>
</g>
<!-- Node8 -->
<g id="Node000008" class="node">
<title>Node8</title>
<g id="a_Node000008"><a xlink:href="xof_8h.html" target="_top" xlink:title="Ascon&#45;XOF128 extendable&#45;output function.">
<polygon fill="white" stroke="#666666" points="644.88,-90.25 527.62,-90.25 527.62,-56.75 644.88,-56.75 644.88,-90.25"/>
<text xml:space="preserve" text-anchor="start" x="535.62" y="-76.75" font-family="Helvetica,sans-Serif" font-size="10.00">include/verum/ascon</text>
<text xml:space="preserve" text-anchor="middle" x="586.25" y="-64" font-family="Helvetica,sans-Serif" font-size="10.00">/xof.h</text>
</a>
</g>
</g>
<!-- Node1&#45;&gt;Node8 -->
<g id="edge7_Node000001_Node000008" class="edge">
<title>Node1&#45;&gt;Node8</title>
<g id="a_edge7_Node000001_Node000008"><a xlink:title=" ">
<path fill="none" stroke="#63b8ff" d="M483.18,-121.17C503.37,-112.03 529.5,-100.2 550.39,-90.73"/>
<polygon fill="#63b8ff" stroke="#63b8ff" points="481.98,-117.87 474.32,-125.18 484.87,-124.24 481.98,-117.87"/>
</a>
</g>
</g>
<!-- Node11 -->
<g id="Node000011" class="node">
<title>Node11</title>
<g id="a_Node000011"><a xlink:href="verify_8h.html" target="_top" xlink:title="LM&#45;OTS one&#45;time signature verification.">
<polygon fill="white" stroke="#666666" points="791.5,-90.25 663,-90.25 663,-56.75 791.5,-56.75 791.5,-90.25"/>
<text xml:space="preserve" text-anchor="start" x="671" y="-76.75" font-family="Helvetica,sans-Serif" font-size="10.00">include/verum/leighton</text>
<text xml:space="preserve" text-anchor="middle" x="727.25" y="-64" font-family="Helvetica,sans-Serif" font-size="10.00">_micali_ots/verify.h</text>
</a>
</g>
</g>
<!-- Node1&#45;&gt;Node11 -->
<g id="edge10_Node000001_Node000011" class="edge">
<title>Node1&#45;&gt;Node11</title>
<g id="a_edge10_Node000001_Node000011"><a xlink:title=" ">
<path fill="none" stroke="#63b8ff" d="M506.63,-123.36C551.68,-113.38 615.33,-99.29 662.69,-88.8"/>
<polygon fill="#63b8ff" stroke="#63b8ff" points="506.08,-119.9 497.07,-125.48 507.59,-126.73 506.08,-119.9"/>
</a>
</g>
</g>
<!-- Node12 -->
<g id="Node000012" class="node">
<title>Node12</title>
<g id="a_Node000012"><a xlink:href="source_2ascon_2ascon_8h.html" target="_top" xlink:title="Ascon shared primitives.">
<polygon fill="white" stroke="#666666" points="374.38,-83.88 254.12,-83.88 254.12,-63.12 374.38,-63.12 374.38,-83.88"/>
<text xml:space="preserve" text-anchor="middle" x="314.25" y="-70.38" font-family="Helvetica,sans-Serif" font-size="10.00">source/ascon/ascon.h</text>
</a>
</g>
</g>
<!-- Node1&#45;&gt;Node12 -->
<g id="edge12_Node000001_Node000012" class="edge">
<title>Node1&#45;&gt;Node12</title>
<g id="a_edge12_Node000001_Node000012"><a xlink:title=" ">
<path fill="none" stroke="#63b8ff" d="M418.95,-121.21C393.45,-109.84 358.56,-94.27 336.21,-84.3"/>
<polygon fill="#63b8ff" stroke="#63b8ff" points="417.3,-124.31 427.86,-125.19 420.15,-117.92 417.3,-124.31"/>
</a>
</g>
</g>
<!-- Node13 -->
<g id="Node000013" class="node">
<title>Node13</title>
<g id="a_Node000013"><a xlink:href="memory_8c.html" target="_top" xlink:title="Memory primitives.">
<polygon fill="white" stroke="#666666" points="954.75,-83.88 809.75,-83.88 809.75,-63.12 954.75,-63.12 954.75,-83.88"/>
<text xml:space="preserve" text-anchor="middle" x="882.25" y="-70.38" font-family="Helvetica,sans-Serif" font-size="10.00">source/auxiliary/memory.c</text>
</a>
</g>
</g>
<!-- Node1&#45;&gt;Node13 -->
<g id="edge16_Node000001_Node000013" class="edge">
<title>Node1&#45;&gt;Node13</title>
<g id="a_edge16_Node000001_Node000013"><a xlink:title=" ">
<path fill="none" stroke="#63b8ff" d="M509.35,-129.16C578.74,-121.19 698.25,-106.66 800.25,-90.25 811.13,-88.5 822.77,-86.4 833.77,-84.31"/>
<polygon fill="#63b8ff" stroke="#63b8ff" points="509.28,-125.65 499.74,-130.26 510.07,-132.6 509.28,-125.65"/>
</a>
</g>
</g>
<!-- Node2&#45;&gt;Node3 -->
<g id="edge2_Node000002_Node000003" class="edge">
<title>Node2&#45;&gt;Node3</title>
<g id="a_edge2_Node000002_Node000003"><a xlink:title=" ">
<path fill="none" stroke="#63b8ff" d="M164.55,-48.71C174.72,-39.14 185.89,-28.64 193.78,-21.22"/>
<polygon fill="#63b8ff" stroke="#63b8ff" points="162.32,-46 157.43,-55.4 167.11,-51.1 162.32,-46"/>
</a>
</g>
</g>
<!-- Node4 -->
<g id="Node000004" class="node">
<title>Node4</title>
<g id="a_Node000004"><a xlink:href="test_2suite_2ascon_2aead_8c.html" target="_top" xlink:title="Auto&#45;generated KAT tests for VERUM_ASCON_AEAD128.">
<polygon fill="white" stroke="#666666" points="128.5,-20.75 0,-20.75 0,0 128.5,0 128.5,-20.75"/>
<text xml:space="preserve" text-anchor="middle" x="64.25" y="-7.25" font-family="Helvetica,sans-Serif" font-size="10.00">test/suite/ascon/aead.c</text>
</a>
</g>
</g>
<!-- Node2&#45;&gt;Node4 -->
<g id="edge3_Node000002_Node000004" class="edge">
<title>Node2&#45;&gt;Node4</title>
<g id="a_edge3_Node000002_Node000004"><a xlink:title=" ">
<path fill="none" stroke="#63b8ff" d="M110.76,-49.28C98.83,-39.56 85.61,-28.79 76.33,-21.22"/>
<polygon fill="#63b8ff" stroke="#63b8ff" points="108.41,-51.88 118.37,-55.48 112.83,-46.45 108.41,-51.88"/>
</a>
</g>
</g>
<!-- Node6 -->
<g id="Node000006" class="node">
<title>Node6</title>
<g id="a_Node000006"><a xlink:href="source_2ascon_2hash_8c.html" target="_top" xlink:title="NIST SP 800&#45;232 ASCON HASH256.">
<polygon fill="white" stroke="#666666" points="394.38,-20.75 280.12,-20.75 280.12,0 394.38,0 394.38,-20.75"/>
<text xml:space="preserve" text-anchor="middle" x="337.25" y="-7.25" font-family="Helvetica,sans-Serif" font-size="10.00">source/ascon/hash.c</text>
</a>
</g>
</g>
<!-- Node5&#45;&gt;Node6 -->
<g id="edge5_Node000005_Node000006" class="edge">
<title>Node5&#45;&gt;Node6</title>
<g id="a_edge5_Node000005_Node000006"><a xlink:title=" ">
<path fill="none" stroke="#63b8ff" d="M411.1,-50.97C392.14,-40.81 370.45,-29.18 355.51,-21.17"/>
<polygon fill="#63b8ff" stroke="#63b8ff" points="409.2,-53.92 419.67,-55.56 412.51,-47.75 409.2,-53.92"/>
</a>
</g>
</g>
<!-- Node7 -->
<g id="Node000007" class="node">
<title>Node7</title>
<g id="a_Node000007"><a xlink:href="test_2suite_2ascon_2hash_8c.html" target="_top" xlink:title="Auto&#45;generated KAT tests for VERUM_ASCON_HASH256.">
<polygon fill="white" stroke="#666666" points="664.12,-20.75 536.38,-20.75 536.38,0 664.12,0 664.12,-20.75"/>
<text xml:space="preserve" text-anchor="middle" x="600.25" y="-7.25" font-family="Helvetica,sans-Serif" font-size="10.00">test/suite/ascon/hash.c</text>
</a>
</g>
</g>
<!-- Node5&#45;&gt;Node7 -->
<g id="edge6_Node000005_Node000007" class="edge">
<title>Node5&#45;&gt;Node7</title>
<g id="a_edge6_Node000005_Node000007"><a xlink:title=" ">
<path fill="none" stroke="#63b8ff" d="M501.34,-51.95C526.67,-41.56 556.22,-29.44 576.39,-21.17"/>
<polygon fill="#63b8ff" stroke="#63b8ff" points="500.11,-48.67 492.19,-55.71 502.77,-55.15 500.11,-48.67"/>
</a>
</g>
</g>
<!-- Node9 -->
<g id="Node000009" class="node">
<title>Node9</title>
<g id="a_Node000009"><a xlink:href="source_2ascon_2xof_8c.html" target="_top" xlink:title="NIST SP 800&#45;232 ASCON XOF.">
<polygon fill="white" stroke="#666666" points="517.88,-20.75 412.62,-20.75 412.62,0 517.88,0 517.88,-20.75"/>
<text xml:space="preserve" text-anchor="middle" x="465.25" y="-7.25" font-family="Helvetica,sans-Serif" font-size="10.00">source/ascon/xof.c</text>
</a>
</g>
</g>
<!-- Node8&#45;&gt;Node9 -->
<g id="edge8_Node000008_Node000009" class="edge">
<title>Node8&#45;&gt;Node9</title>
<g id="a_edge8_Node000008_Node000009"><a xlink:title=" ">
<path fill="none" stroke="#63b8ff" d="M543.91,-51.11C523.72,-40.91 500.56,-29.21 484.63,-21.17"/>
<polygon fill="#63b8ff" stroke="#63b8ff" points="542.29,-54.21 552.79,-55.6 545.44,-47.96 542.29,-54.21"/>
</a>
</g>
</g>
<!-- Node10 -->
<g id="Node000010" class="node">
<title>Node10</title>
<g id="a_Node000010"><a xlink:href="test_2suite_2ascon_2xof_8c.html" target="_top" xlink:title="Auto&#45;generated KAT tests for VERUM_ASCON_XOF128.">
<polygon fill="white" stroke="#666666" points="800.62,-20.75 681.88,-20.75 681.88,0 800.62,0 800.62,-20.75"/>
<text xml:space="preserve" text-anchor="middle" x="741.25" y="-7.25" font-family="Helvetica,sans-Serif" font-size="10.00">test/suite/ascon/xof.c</text>
</a>
</g>
</g>
<!-- Node8&#45;&gt;Node10 -->
<g id="edge9_Node000008_Node000010" class="edge">
<title>Node8&#45;&gt;Node10</title>
<g id="a_edge9_Node000008_Node000010"><a xlink:title=" ">
<path fill="none" stroke="#63b8ff" d="M638.01,-52.09C664.43,-41.67 695.36,-29.47 716.42,-21.17"/>
<polygon fill="#63b8ff" stroke="#63b8ff" points="636.81,-48.8 628.79,-55.72 639.38,-55.31 636.81,-48.8"/>
</a>
</g>
</g>
<!-- Node12&#45;&gt;Node3 -->
<g id="edge13_Node000012_Node000003" class="edge">
<title>Node12&#45;&gt;Node3</title>
<g id="a_edge13_Node000012_Node000003"><a xlink:title=" ">
<path fill="none" stroke="#63b8ff" d="M286.65,-57.17C266.35,-45.88 239.34,-30.88 221.88,-21.17"/>
<polygon fill="#63b8ff" stroke="#63b8ff" points="284.81,-60.15 295.25,-61.94 288.21,-54.03 284.81,-60.15"/>
</a>
</g>
</g>
<!-- Node12&#45;&gt;Node6 -->
<g id="edge14_Node000012_Node000006" class="edge">
<title>Node12&#45;&gt;Node6</title>
<g id="a_edge14_Node000012_Node000006"><a xlink:title=" ">
<path fill="none" stroke="#63b8ff" d="M322,-51.91C325.93,-41.45 330.53,-29.24 333.64,-20.97"/>
<polygon fill="#63b8ff" stroke="#63b8ff" points="318.72,-50.67 318.48,-61.26 325.28,-53.14 318.72,-50.67"/>
</a>
</g>
</g>
<!-- Node12&#45;&gt;Node9 -->
<g id="edge15_Node000012_Node000009" class="edge">
<title>Node12&#45;&gt;Node9</title>
<g id="a_edge15_Node000012_Node000009"><a xlink:title=" ">
<path fill="none" stroke="#63b8ff" d="M349.1,-58.39C377.27,-46.99 416.2,-31.23 441.05,-21.17"/>
<polygon fill="#63b8ff" stroke="#63b8ff" points="347.87,-55.11 339.91,-62.11 350.5,-61.6 347.87,-55.11"/>
</a>
</g>
</g>
</g>
</svg>

<g id="navigator" transform="translate(0 0)" fill="#404254">
  <rect fill="#f2f5e9" fill-opacity="0.5" stroke="#606060" stroke-width=".5" x="0" y="0" width="60" height="60"/>
  <use id="zoomplus" xlink:href="#zoomPlus" x="17" y="9" onmousedown="handleZoom(evt,'in')"/>
  <use id="zoomminus" xlink:href="#zoomMin" x="42" y="9" onmousedown="handleZoom(evt,'out')"/>
  <use id="reset" xlink:href="#resetDef" x="30" y="36" onmousedown="handleReset()"/>
   <use id="arrowup" xlink:href="#arrowUp" x="0" y="0" onmousedown="handlePan(0,-1)"/>
  <use id="arrowright" xlink:href="#arrowRight" x="0" y="0" onmousedown="handlePan(1,0)"/>
  <use id="arrowdown" xlink:href="#arrowDown" x="0" y="0" onmousedown="handlePan(0,1)"/>
  <use id="arrowleft" xlink:href="#arrowLeft" x="0" y="0" onmousedown="handlePan(-1,0)"/>
</g>
<svg viewBox="0 0 15 15" width="100%" height="30px" preserveAspectRatio="xMaxYMin meet">
 <g id="arrow_out" transform="scale(0.3 0.3)">
  <a xlink:href="define_8h__dep__incl_org.svg" target="_base">
   <rect id="button" ry="5" rx="5" y="6" x="6" height="38" width="38"
        fill="#f2f5e9" fill-opacity="0.5" stroke="#606060" stroke-width="1.0"/>
   <path id="arrow"
     d="M 11.500037,31.436501 C 11.940474,20.09759 22.043105,11.32322 32.158766,21.979434 L 37.068811,17.246167 C 37.068811,17.246167 37.088388,32 37.088388,32 L 22.160133,31.978069 C 22.160133,31.978069 26.997745,27.140456 26.997745,27.140456 C 18.528582,18.264221 13.291696,25.230495 11.500037,31.436501 z"
     style="fill:#404040;"/>
  </a>
 </g>
</svg>

<style type='text/css'>
<![CDATA[
[data-mouse-over-selected='false'] { opacity: 0.7; }
[data-mouse-over-selected='true']  { opacity: 1.0; }
]]>
</style>
<script type="application/ecmascript"><![CDATA[
document.addEventListener('DOMContentLoaded', (event) => {
  highlightEdges();
  highlightAdjacentNodes();
});
]]></script>
</svg>
